<svg width="1161" height="736" viewBox="0 0 1161 736" fill="none" xmlns="http://www.w3.org/2000/svg">
<path d="M66.8362 156.531L0.633789 178.179L44.0452 303.737L255.676 429.836L360.406 368.681L358.235 354.61L425.523 315.643L427.693 316.726L429.321 322.138L517.229 269.641V268.018L521.57 264.229L515.601 260.982L513.431 153.825L497.152 147.872V155.449L474.361 147.872V140.836L462.422 136.507L459.709 138.671V144.625L367.46 184.673L357.693 110.529L319.708 98.6228V92.6696L289.862 83.4692L218.233 106.741L219.861 112.694L68.4641 161.943L66.8362 156.531Z" fill="#F2EC58" fill-opacity="0.3"/>
<path d="M707.155 153.284L701.729 219.851L746.225 233.922L740.799 287.501L753.822 290.207L866.692 201.992L928.553 218.228L926.382 220.392L906.305 309.149L922.584 292.372L924.212 284.795L926.382 283.171L947.003 289.666L945.375 297.784L987.701 310.231L990.414 303.196L1012.66 311.314L994.755 374.093L1020.8 382.211V385.999L1029.48 374.093L1035.45 375.716L1041.42 367.598L1036.54 365.434L1041.42 357.857L1046.31 360.022L1052.28 351.362L1047.93 349.739L1068.55 321.055L1072.9 322.679L1078.32 315.643L1073.98 314.02L1096.23 282.63L1100.57 283.713L1105.45 277.218L1101.11 275.595L1117.39 253.947L1122.28 255.029L1126.07 249.076L1120.65 247.452L1121.19 245.829L1122.28 242.04L1128.79 243.664L1132.59 238.252L1124.45 236.087L1160.8 130.554L1077.78 113.235L1076.15 119.73L897.08 81.8457L897.622 75.8926L855.839 67.2334L811.885 92.1285V97.5405L811.342 98.0817L756.535 130.012V124.6L707.155 153.284Z" fill="#F2EC58" fill-opacity="0.3"/>
<path d="M687.62 213.896L748.939 233.379L736.458 355.69L697.93 388.162L653.434 368.679L612.736 403.835L752.195 465.553L925.298 291.288L928.011 282.087L950.802 288.582L948.631 296.7L989.872 309.688L992.043 301.57L1015.38 309.688L978.477 437.411L989.872 442.282L983.36 452.023L975.221 448.776L974.135 455.271L969.794 460.141L975.221 462.306L968.166 472.048L962.74 470.424L961.112 473.671L928.553 514.261L937.236 517.508L928.553 530.497L921.499 528.332L875.917 592.194L881.886 594.9L871.576 610.053L864.522 606.265L819.482 666.879L826.537 671.75L816.226 687.986L808.629 684.198L794.521 702.598L801.032 706.387L789.637 723.164L783.125 719.375L771.73 735.07L381.027 505.061L358.236 353.525L426.067 314.018L428.78 321.595L574.208 235.544V229.05L641.496 191.707L687.62 206.319V213.896Z" fill="#F2EC58" fill-opacity="0.3"/>
<path d="M366.316 58.3062L379.873 164.051L401.022 168.389L455.792 143.986V138.021L460.13 135.852L473.687 139.648V147.24L495.921 154.832V147.24L511.104 152.12L512.731 207.975L575.635 228.582L638.54 191.707L654.266 196.587L705.782 166.22L707.409 152.12L737.235 135.852L746.453 43.6647L690.056 31.1923V37.1574L570.755 11.6703V7.33205L542.014 0.824707L488.871 18.1776V24.1427L424.34 44.7493V39.3265L366.316 58.3062Z" fill="#F2EC58" fill-opacity="0.3"/>
</svg>
