<svg width="8" height="14" viewBox="0 0 8 14" fill="none" xmlns="http://www.w3.org/2000/svg">
<path fill-rule="evenodd" clip-rule="evenodd" d="M0.576682 0.677816C0.68554 0.559082 0.870039 0.551076 0.988773 0.659934L7.23139 6.38331C7.58742 6.71264 7.59225 7.28473 7.22962 7.61233L7.22845 7.61338L0.988882 13.3398C0.870203 13.4487 0.6857 13.4408 0.576782 13.3221C0.467864 13.2035 0.475776 13.019 0.594455 12.91L6.83821 7.17978C6.94097 7.0873 6.94553 6.91387 6.83562 6.81185L0.594564 1.08991C0.47583 0.981049 0.467824 0.79655 0.576682 0.677816Z" fill="white"/>
<path d="M6.83562 6.81185C6.94553 6.91387 6.94097 7.0873 6.83821 7.17978L0.594455 12.91C0.475776 13.019 0.467864 13.2035 0.576782 13.3221C0.6857 13.4408 0.870203 13.4487 0.988882 13.3398L7.22845 7.61338L7.22962 7.61233C7.59225 7.28473 7.58742 6.71264 7.23139 6.38331L0.988773 0.659934C0.870039 0.551076 0.68554 0.559082 0.576682 0.677816C0.467824 0.79655 0.47583 0.981049 0.594564 1.08991L6.83562 6.81185ZM6.83562 6.81185V6.81185Z" stroke="white" stroke-miterlimit="1" stroke-linecap="round" stroke-linejoin="round"/>
</svg>
