<svg width="59" height="48" viewBox="0 0 59 48" fill="none" xmlns="http://www.w3.org/2000/svg">
<path d="M58.8405 29.2315C58.7108 29.0099 58.5114 28.8374 58.2734 28.7411L54.0419 27.009L58.4245 24.4282C58.9786 24.1039 59.1649 23.3919 58.8405 22.8378C58.7108 22.6162 58.5114 22.4437 58.2734 22.3474L54.0419 20.6153L58.4245 18.0346C58.8073 17.8043 59.0242 17.375 58.9825 16.9302C58.9489 16.4909 58.6698 16.1082 58.2618 15.9421L41.6033 9.11829L33.3962 5.63083C33.2629 5.57808 33.1209 5.55062 32.9777 5.54946L19.6091 0.109019C19.2808 -0.0272824 18.9082 -0.00577616 18.5977 0.167144L0.683762 10.2343C0.110366 10.523 -0.120388 11.222 0.168345 11.7954C0.299996 12.0569 0.525664 12.2592 0.800011 12.3616L5.12446 14.1519L0.683762 16.628C0.125042 16.9442 -0.0715635 17.6536 0.244633 18.2123C0.370327 18.4343 0.565334 18.6087 0.800011 18.7088L5.12446 20.499L0.707012 22.9751C0.116324 23.2268 -0.158314 23.9098 0.0933644 24.5003C0.22458 24.8082 0.482071 25.0445 0.800011 25.149L5.12446 26.9276L0.707012 29.4037C0.148292 29.7199 -0.0483138 30.4293 0.267883 30.988C0.393577 31.21 0.588584 31.3844 0.823261 31.4845L15.8542 37.8666C15.9091 37.9066 15.9676 37.9416 16.0286 37.9712L24.2474 41.4587L39.3597 47.8872C39.6997 48.0315 40.0882 48.0057 40.4059 47.8175L58.4245 37.2156C58.9786 36.8913 59.1649 36.1792 58.8405 35.6252C58.7108 35.4036 58.5114 35.2311 58.2734 35.1348L54.0419 33.4026L58.4245 30.8219C58.9786 30.4977 59.1647 29.7856 58.8405 29.2315ZM55.216 23.5914L39.7201 32.7169L25.8632 26.8347V22.9637L39.3481 28.6947C39.4915 28.7557 39.6457 28.7874 39.8015 28.7877C40.0101 28.7877 40.2149 28.7315 40.3943 28.625L51.5193 22.0802L55.216 23.5914ZM55.2625 17.1861L39.7201 26.3116L27.1303 20.9642L41.3127 11.4899L55.2625 17.1861ZM15.2846 35.1233L3.8806 30.2757L7.79818 28.0786L15.2962 31.2638L15.2846 35.1233ZM15.2846 28.7296L3.8806 23.882L7.79818 21.6617L15.2962 24.8469L15.2846 28.7296ZM15.2846 22.3359L3.8806 17.5L7.79818 15.3029L15.2962 18.4881L15.2846 22.3359ZM3.8806 11.1063L19.2487 2.46901L30.3969 7.03759L16.3541 16.4072L3.8806 11.1063ZM24.0498 20.2434C23.7293 20.4599 23.5377 20.8216 23.5383 21.2083V38.6456L17.6212 36.1346V18.3602L33.0242 8.09545L38.7552 10.4204L24.0498 20.2434ZM55.216 36.3788L39.7201 45.4927L25.8632 39.6105V35.751L39.3481 41.424C39.6881 41.5682 40.0765 41.5424 40.3943 41.3542L51.5193 34.8094L55.216 36.3788ZM39.7201 39.099L25.8632 33.2168V29.3573L39.3597 35.0884C39.6997 35.2327 40.0882 35.2068 40.4059 35.0186L51.531 28.4738L55.216 29.9851L39.7201 39.099Z" fill="white"/>
</svg>
