<svg width="50" height="50" viewBox="0 0 50 50" fill="none" xmlns="http://www.w3.org/2000/svg">
<path fill-rule="evenodd" clip-rule="evenodd" d="M45.5281 4.47178C45.9349 4.87858 45.9349 5.53813 45.5281 5.94492L5.94474 45.5283C5.53794 45.935 4.8784 45.935 4.4716 45.5283C4.0648 45.1215 4.0648 44.4619 4.4716 44.0551L44.0549 4.47178C44.4617 4.06499 45.1213 4.06499 45.5281 4.47178Z" fill="black"/>
<path fill-rule="evenodd" clip-rule="evenodd" d="M36.4585 27.0833C32.5434 27.0833 29.1668 30.6956 29.1668 35.4167C29.1668 40.1378 32.5434 43.75 36.4585 43.75C40.3736 43.75 43.7502 40.1378 43.7502 35.4167C43.7502 30.6956 40.3736 27.0833 36.4585 27.0833ZM27.0835 35.4167C27.0835 29.7824 31.1689 25 36.4585 25C41.7481 25 45.8335 29.7824 45.8335 35.4167C45.8335 41.0509 41.7481 45.8333 36.4585 45.8333C31.1689 45.8333 27.0835 41.0509 27.0835 35.4167Z" fill="black"/>
<path fill-rule="evenodd" clip-rule="evenodd" d="M13.5415 6.25002C9.62638 6.25002 6.24984 9.86225 6.24984 14.5834C6.24984 19.3045 9.62638 22.9167 13.5415 22.9167C17.4566 22.9167 20.8332 19.3045 20.8332 14.5834C20.8332 9.86225 17.4566 6.25002 13.5415 6.25002ZM4.1665 14.5834C4.1665 8.94912 8.25188 4.16669 13.5415 4.16669C18.8311 4.16669 22.9165 8.94912 22.9165 14.5834C22.9165 20.2176 18.8311 25 13.5415 25C8.25188 25 4.1665 20.2176 4.1665 14.5834Z" fill="black"/>
</svg>
