<svg width="10" height="14" viewBox="0 0 10 14" fill="none" xmlns="http://www.w3.org/2000/svg">
<path d="M8.5 0H1.5C1.23478 0 0.98043 0.105357 0.792893 0.292893C0.605357 0.48043 0.5 0.734784 0.5 1V13C0.5 13.2652 0.605357 13.5196 0.792893 13.7071C0.98043 13.8946 1.23478 14 1.5 14H8.5C8.76522 14 9.01957 13.8946 9.20711 13.7071C9.39464 13.5196 9.5 13.2652 9.5 13V1C9.5 0.734784 9.39464 0.48043 9.20711 0.292893C9.01957 0.105357 8.76522 0 8.5 0ZM1.5 1H8.5V10H1.5V1ZM1.5 13V11H8.5V13H1.5Z" fill="white"/>
<path d="M4.5 11.5H5.5V12.5H4.5V11.5Z" fill="white"/>
</svg>
