<svg width="74" height="74" viewBox="0 0 74 74" fill="none" xmlns="http://www.w3.org/2000/svg">
<path d="M36.7412 68.8694C28.3128 68.8694 20.2296 65.5285 14.2698 59.5816C8.30998 53.6348 4.9618 45.5691 4.9618 37.159C4.9618 28.7488 8.30998 20.6832 14.2698 14.7363C20.2296 8.78943 28.3128 5.44852 36.7412 5.44852C45.1697 5.44852 53.2529 8.78943 59.2127 14.7363C65.1725 20.6832 68.5207 28.7488 68.5207 37.159C68.5207 45.5691 65.1725 53.6348 59.2127 59.5816C53.2529 65.5285 45.1697 68.8694 36.7412 68.8694ZM36.7412 73.3995C46.3737 73.3995 55.6117 69.5813 62.4229 62.7849C69.2341 55.9885 73.0606 46.7705 73.0606 37.159C73.0606 27.5474 69.2341 18.3295 62.4229 11.5331C55.6117 4.73664 46.3737 0.918457 36.7412 0.918457C27.1087 0.918457 17.8708 4.73664 11.0596 11.5331C4.24837 18.3295 0.421875 27.5474 0.421875 37.159C0.421875 46.7705 4.24837 55.9885 11.0596 62.7849C17.8708 69.5813 27.1087 73.3995 36.7412 73.3995Z" fill="white"/>
<path d="M28.8919 23.818C29.2632 23.6272 29.6801 23.5423 30.0966 23.5727C30.5131 23.603 30.9131 23.7475 31.2527 23.9901L47.1424 35.3153C47.4367 35.5248 47.6765 35.8014 47.842 36.1221C48.0075 36.4428 48.0939 36.7983 48.0939 37.159C48.0939 37.5197 48.0075 37.8752 47.842 38.1959C47.6765 38.5166 47.4367 38.7932 47.1424 39.0027L31.2527 50.3279C30.9133 50.5703 30.5134 50.7146 30.0971 50.745C29.6808 50.7754 29.2642 50.6906 28.893 50.5C28.5219 50.3095 28.2105 50.0205 27.9933 49.6648C27.776 49.3092 27.6613 48.9007 27.6616 48.4841V25.8338C27.6612 25.4174 27.7758 25.009 27.9928 24.6533C28.2099 24.2977 28.521 24.0087 28.8919 23.818Z" fill="white"/>
</svg>
